<svg width="24" height="24" viewBox="0 0 24 24" fill="none" xmlns="http://www.w3.org/2000/svg">
<path d="M5.82721 5.82796C5.48321 6.17696 5.25721 6.66696 5.13121 7.59796C5.00221 8.56296 5.00121 9.84097 5.00121 11.68V12.32C5.00121 14.156 5.00221 15.433 5.13121 16.397C5.25621 17.329 5.48321 17.822 5.82821 18.174C6.17821 18.517 6.66821 18.744 7.59821 18.869C8.56321 18.998 9.84121 19 11.6802 19H12.3202C14.1562 19 15.4332 18.998 16.3982 18.869C17.3292 18.744 17.8222 18.517 18.1742 18.172C18.5172 17.823 18.7442 17.333 18.8692 16.402C18.9992 15.437 19.0002 14.159 19.0002 12.32V11.68C19.0002 9.84397 18.9982 8.56697 18.8702 7.60296C18.7442 6.67096 18.5172 6.17796 18.1722 5.82596C17.8232 5.48296 17.3332 5.25596 16.4022 5.13096C15.4372 5.00196 14.1592 4.99996 12.3202 4.99996H11.6802C9.84421 4.99996 8.56721 5.00196 7.60321 5.13096C6.67121 5.25596 6.17921 5.48296 5.82721 5.82796ZM11.6802 2.99996H12.3202C13.7652 2.99996 15.2322 2.95696 16.6672 3.14896C17.8232 3.30396 18.8022 3.63496 19.5842 4.40896L19.5922 4.41796C20.3652 5.20196 20.6972 6.18096 20.8522 7.33796C21.0432 8.77096 21.0002 10.237 21.0002 11.68V12.32C21.0002 13.764 21.0442 15.231 20.8512 16.667C20.6972 17.823 20.3652 18.802 19.5912 19.584L19.5822 19.592C18.7992 20.365 17.8202 20.696 16.6622 20.852C15.2292 21.043 13.7632 21 12.3202 21H11.6802C10.2362 21 8.76921 21.043 7.33421 20.851C6.17721 20.696 5.19821 20.365 4.41721 19.591L4.40821 19.582C3.63621 18.798 3.30421 17.819 3.14921 16.662C2.95721 15.23 3.00021 13.764 3.00021 12.32V11.68C3.00021 10.236 2.95721 8.76896 3.15021 7.33296C3.30421 6.17696 3.63621 5.19796 4.41021 4.41596L4.41821 4.40796C5.20221 3.63496 6.18121 3.30396 7.33821 3.14796C8.77221 2.95796 10.2382 2.99996 11.6802 2.99996ZM6.03621 8.47796C6.13221 13.158 8.47221 15.966 12.5762 15.966H12.8162V13.29C14.3222 13.44 15.4622 14.544 15.9182 15.966H18.0482C17.8299 15.1579 17.4426 14.4053 16.9121 13.7578C16.3815 13.1104 15.7196 12.5828 14.9702 12.21C15.6416 11.801 16.2215 11.2579 16.6737 10.6148C17.1258 9.97163 17.4406 9.24218 17.5982 8.47196H15.6662C15.2462 9.95996 13.9982 11.31 12.8162 11.436V8.47796H10.8782V13.662C9.67821 13.362 8.16621 11.91 8.10021 8.47796H6.03621Z" fill="#6B4F44"/>
</svg>
