<svg width="50" height="50" viewBox="0 0 50 50" fill="none" xmlns="http://www.w3.org/2000/svg">
<path d="M16.0833 4H33.5833C40.25 4 45.6667 9.41667 45.6667 16.0833V33.5833C45.6667 36.788 44.3936 39.8615 42.1275 42.1275C39.8615 44.3936 36.788 45.6667 33.5833 45.6667H16.0833C9.41667 45.6667 4 40.25 4 33.5833V16.0833C4 12.8786 5.27306 9.80519 7.53913 7.53913C9.80519 5.27306 12.8786 4 16.0833 4ZM15.6667 8.16667C13.6775 8.16667 11.7699 8.95684 10.3634 10.3634C8.95684 11.7699 8.16667 13.6775 8.16667 15.6667V34C8.16667 38.1458 11.5208 41.5 15.6667 41.5H34C35.9891 41.5 37.8968 40.7098 39.3033 39.3033C40.7098 37.8968 41.5 35.9891 41.5 34V15.6667C41.5 11.5208 38.1458 8.16667 34 8.16667H15.6667ZM35.7708 11.2917C36.4615 11.2917 37.1239 11.566 37.6123 12.0544C38.1006 12.5428 38.375 13.2052 38.375 13.8958C38.375 14.5865 38.1006 15.2489 37.6123 15.7373C37.1239 16.2256 36.4615 16.5 35.7708 16.5C35.0802 16.5 34.4178 16.2256 33.9294 15.7373C33.441 15.2489 33.1667 14.5865 33.1667 13.8958C33.1667 13.2052 33.441 12.5428 33.9294 12.0544C34.4178 11.566 35.0802 11.2917 35.7708 11.2917ZM24.8333 14.4167C27.596 14.4167 30.2455 15.5141 32.199 17.4676C34.1525 19.4211 35.25 22.0707 35.25 24.8333C35.25 27.596 34.1525 30.2455 32.199 32.199C30.2455 34.1525 27.596 35.25 24.8333 35.25C22.0707 35.25 19.4211 34.1525 17.4676 32.199C15.5141 30.2455 14.4167 27.596 14.4167 24.8333C14.4167 22.0707 15.5141 19.4211 17.4676 17.4676C19.4211 15.5141 22.0707 14.4167 24.8333 14.4167ZM24.8333 18.5833C23.1757 18.5833 21.586 19.2418 20.4139 20.4139C19.2418 21.586 18.5833 23.1757 18.5833 24.8333C18.5833 26.4909 19.2418 28.0807 20.4139 29.2528C21.586 30.4249 23.1757 31.0833 24.8333 31.0833C26.4909 31.0833 28.0807 30.4249 29.2528 29.2528C30.4249 28.0807 31.0833 26.4909 31.0833 24.8333C31.0833 23.1757 30.4249 21.586 29.2528 20.4139C28.0807 19.2418 26.4909 18.5833 24.8333 18.5833Z" fill="white"/>
</svg>
