<svg width="50" height="50" viewBox="0 0 50 50" fill="none" xmlns="http://www.w3.org/2000/svg">
<path fill-rule="evenodd" clip-rule="evenodd" d="M12.1273 28.4354C12.2174 28.4632 12.3092 28.4847 12.4023 28.5C12.9917 29.8889 13.5778 31.2792 14.1606 32.6709C15.2085 35.175 16.2648 37.7542 16.496 38.4959C16.7856 39.4084 17.0898 40.0292 17.4231 40.4542C17.596 40.6709 17.7939 40.8625 18.0273 41.0084C18.1498 41.0826 18.2796 41.1441 18.4148 41.1917C19.0814 41.4417 19.6898 41.3375 20.071 41.2104C20.2949 41.1344 20.5078 41.0293 20.7044 40.8979L20.7148 40.8938L26.6023 37.2229L33.4044 42.4354C33.5044 42.5118 33.6127 42.5764 33.7294 42.6292C34.546 42.9834 35.3377 43.1084 36.0835 43.0084C36.8252 42.9042 37.4148 42.5938 37.8544 42.2417C38.3587 41.8344 38.761 41.3151 39.0294 40.725L39.0481 40.6792L39.0544 40.6625L39.0585 40.6542V40.65L39.0606 40.6479C39.0948 40.5576 39.1226 40.465 39.1439 40.3709L45.3523 9.06877C45.3694 8.96823 45.3792 8.86657 45.3814 8.7646C45.3814 7.84794 45.0356 6.97502 44.2252 6.44794C43.5294 5.99585 42.7564 5.97502 42.2669 6.01252C41.7419 6.05419 41.2544 6.18335 40.9273 6.28752C40.7445 6.34654 40.5638 6.41185 40.3856 6.48335L40.3627 6.49377L5.54185 20.1521L5.53768 20.1542C5.4196 20.1968 5.30351 20.2448 5.18977 20.2979C4.91354 20.4219 4.64865 20.5697 4.3981 20.7396C3.92518 21.0625 2.8356 21.95 3.02102 23.4167C3.16685 24.5834 3.96685 25.3021 4.45643 25.6479C4.7231 25.8375 4.97727 25.9729 5.16477 26.0625C5.2481 26.1042 5.42727 26.175 5.50435 26.2084L5.52518 26.2146L12.1273 28.4354ZM41.5814 9.36877H41.5773L41.5231 9.39169L6.6606 23.0688L6.60643 23.0896L6.5856 23.0959C6.52177 23.1205 6.45919 23.1483 6.3981 23.1792C6.45635 23.2119 6.51614 23.2418 6.57727 23.2688L13.1231 25.4729C13.2387 25.5158 13.3502 25.5687 13.4564 25.6313L35.0752 12.975L35.096 12.9646C35.1804 12.9144 35.2666 12.8671 35.3544 12.8229C35.5044 12.7459 35.7439 12.6334 36.0148 12.55C36.2023 12.4917 36.7585 12.3271 37.3585 12.5209C37.6773 12.6203 37.9614 12.8078 38.1782 13.0618C38.3949 13.3158 38.5354 13.6259 38.5835 13.9563C38.6611 14.2453 38.6633 14.5495 38.5898 14.8396C38.4439 15.4125 38.0439 15.8584 37.6794 16.2C37.3669 16.4917 33.3127 20.4 29.3148 24.2584L23.871 29.5084L22.9023 30.4459L35.1356 39.825C35.3008 39.894 35.4801 39.9226 35.6585 39.9084C35.7484 39.896 35.8329 39.8585 35.9023 39.8C35.9866 39.7286 36.059 39.6442 36.1169 39.55L36.121 39.5479L42.1419 9.18752C41.9525 9.23415 41.7666 9.29402 41.5856 9.36669L41.5814 9.36877ZM23.9544 35.1896L21.5127 33.3188L20.921 37.0792L23.9544 35.1896ZM19.2731 29.6063L21.7002 27.2625L27.1439 22.0084L29.171 20.0542L15.5877 28.0063L15.6606 28.1771C16.5173 30.2009 17.3645 32.2287 18.2023 34.2604L18.7919 30.5104C18.8457 30.1628 19.0152 29.8456 19.2731 29.6063Z" fill="#6B4F44"/>
</svg>
