<svg width="50" height="50" viewBox="0 0 50 50" fill="none" xmlns="http://www.w3.org/2000/svg">
<path d="M11.8982 11.9002C11.1815 12.6273 10.7107 13.6482 10.4482 15.5877C10.1794 17.5982 10.1773 20.2607 10.1773 24.0919V25.4252C10.1773 29.2502 10.1794 31.9107 10.4482 33.919C10.7086 35.8607 11.1815 36.8877 11.9002 37.6211C12.6294 38.3357 13.6502 38.8086 15.5877 39.069C17.5982 39.3377 20.2607 39.3419 24.0919 39.3419H25.4252C29.2502 39.3419 31.9107 39.3377 33.9211 39.069C35.8607 38.8086 36.8877 38.3357 37.6211 37.6169C38.3357 36.8898 38.8086 35.869 39.069 33.9294C39.3398 31.919 39.3419 29.2565 39.3419 25.4252V24.0919C39.3419 20.2669 39.3377 17.6065 39.0711 15.5982C38.8086 13.6565 38.3357 12.6294 37.6169 11.8961C36.8898 11.1815 35.869 10.7086 33.9294 10.4482C31.919 10.1794 29.2565 10.1752 25.4252 10.1752H24.0919C20.2669 10.1752 17.6065 10.1794 15.5982 10.4482C13.6565 10.7086 12.6315 11.1815 11.8982 11.9002ZM24.0919 6.00857H25.4252C28.4357 6.00857 31.4919 5.91899 34.4815 6.31899C36.8898 6.64191 38.9294 7.33149 40.5586 8.94399L40.5752 8.96274C42.1856 10.5961 42.8773 12.6357 43.2002 15.0461C43.5982 18.0315 43.5086 21.0857 43.5086 24.0919V25.4252C43.5086 28.4336 43.6002 31.4898 43.1982 34.4815C42.8773 36.8898 42.1857 38.9294 40.5732 40.5586L40.5544 40.5752C38.9232 42.1856 36.8836 42.8752 34.4711 43.2002C31.4857 43.5982 28.4315 43.5086 25.4252 43.5086H24.0919C21.0836 43.5086 18.0273 43.5982 15.0377 43.1982C12.6273 42.8752 10.5877 42.1857 8.96066 40.5732L8.94191 40.5544C7.33357 38.9211 6.64191 36.8815 6.31899 34.4711C5.91899 31.4877 6.00857 28.4336 6.00857 25.4252V24.0919C6.00857 21.0836 5.91899 18.0273 6.32107 15.0357C6.64191 12.6273 7.33357 10.5877 8.94607 8.95857L8.96274 8.94191C10.5961 7.33149 12.6357 6.64191 15.0461 6.31691C18.0336 5.92107 21.0877 6.00857 24.0919 6.00857ZM12.3336 17.4211C12.5336 27.1711 17.4086 33.0211 25.9586 33.0211H26.4586V27.4461C29.5961 27.7586 31.9711 30.0586 32.9211 33.0211H37.3586C36.9037 31.3376 36.0969 29.7696 34.9916 28.4208C33.8862 27.072 32.5074 25.9729 30.9461 25.1961C32.3449 24.344 33.553 23.2127 34.495 21.8728C35.437 20.5329 36.0926 19.0132 36.4211 17.4086H32.3961C31.5211 20.5086 28.9211 23.3211 26.4586 23.5836V17.4211H22.4211V28.2211C19.9211 27.5961 16.7711 24.5711 16.6336 17.4211H12.3336Z" fill="white"/>
</svg>
